<?xml version="1.0" encoding="UTF-8"?>
<!DOCTYPE svg PUBLIC "-//W3C//DTD SVG 1.1//EN" "http://www.w3.org/Graphics/SVG/1.1/DTD/svg11.dtd">
<svg xmlns="http://www.w3.org/2000/svg" version="1.1" width="6336px" height="1005px" style="shape-rendering:geometricPrecision; text-rendering:geometricPrecision; image-rendering:optimizeQuality; fill-rule:evenodd; clip-rule:evenodd" xmlns:xlink="http://www.w3.org/1999/xlink">
<g><path style="opacity:0.994" fill="#009091" d="M 476.5,3.5 C 542.5,-0.749848 593.333,24.5835 629,79.5C 657.491,133.654 656.157,186.988 625,239.5C 617.421,249.658 610.088,259.991 603,270.5C 585,307.167 567,343.833 549,380.5C 539.562,398.022 535.896,416.688 538,436.5C 541.746,450.246 550.746,457.246 565,457.5C 580.948,456.184 596.115,452.017 610.5,445C 643.622,429.272 676.622,413.272 709.5,397C 723.833,386.667 738.167,376.333 752.5,366C 793.417,341.732 836.75,336.399 882.5,350C 938.27,370.436 972.77,409.603 986,467.5C 994.572,528.815 975.072,578.982 927.5,618C 879.871,650.455 828.871,656.788 774.5,637C 759.157,629.971 745.157,620.971 732.5,610C 686.698,584.599 639.698,561.599 591.5,541C 578.701,536.93 565.701,535.597 552.5,537C 543.13,541.55 537.797,549.05 536.5,559.5C 537.213,566.019 538.713,572.353 541,578.5C 562.527,624.082 583.86,669.748 605,715.5C 616.102,734.934 626.769,754.601 637,774.5C 658.906,830.396 651.906,882.396 616,930.5C 577.329,975.396 528.496,993.896 469.5,986C 407.918,973.417 367.418,937.251 348,877.5C 336.931,835.65 341.598,795.65 362,757.5C 371.173,742.491 379.84,727.158 388,711.5C 409.394,665.712 431.06,620.045 453,574.5C 459.109,554.026 452.109,541.026 432,535.5C 420.624,537.181 409.79,540.681 399.5,546C 362.833,563.333 326.167,580.667 289.5,598C 270.02,607.571 251.02,617.904 232.5,629C 173.935,658.948 117.601,655.281 63.5,618C 17.3767,579.67 -2.12328,530.504 5,470.5C 15.3505,416.826 45.1838,378.326 94.5,355C 142.928,336.162 189.928,339.162 235.5,364C 254.368,375.938 274.035,386.604 294.5,396C 334.5,415 374.5,434 414.5,453C 431.671,459.833 444.838,455.333 454,439.5C 457.172,428.879 457.172,418.212 454,407.5C 452.667,403.5 451.333,399.5 450,395.5C 432.88,357.26 415.214,319.26 397,281.5C 386.719,266.885 376.052,252.551 365,238.5C 342.483,200.379 336.483,159.712 347,116.5C 362.156,65.343 394.656,30.1763 444.5,11C 455.147,7.83619 465.814,5.33619 476.5,3.5 Z"/></g>
<g><path style="opacity:0.994" fill="#009091" d="M 3962.5,46.5 C 4019.41,47.0351 4075.41,54.5351 4130.5,69C 4176.9,81.6231 4220.07,101.123 4260,127.5C 4260.74,131.261 4260.4,134.928 4259,138.5C 4240,188.5 4221,238.5 4202,288.5C 4200.27,289.576 4198.44,289.743 4196.5,289C 4109.04,233.039 4013.7,211.372 3910.5,224C 3886.82,228.885 3865.15,238.219 3845.5,252C 3821.41,271.701 3810.58,297.201 3813,328.5C 3812.93,343.909 3817.59,357.575 3827,369.5C 3849.3,393.409 3876.47,409.242 3908.5,417C 3955.31,429.785 4002.31,441.785 4049.5,453C 4090.9,464.797 4130.9,480.131 4169.5,499C 4260.93,547.649 4303.77,624.149 4298,728.5C 4290.6,829.807 4242.77,904.973 4154.5,954C 4100.84,982.749 4043.51,997.749 3982.5,999C 3880.75,1005.21 3783.08,988.208 3689.5,948C 3658.56,933.677 3629.73,916.177 3603,895.5C 3601.81,893.956 3601.48,892.289 3602,890.5C 3623.33,838.5 3644.67,786.5 3666,734.5C 3667.39,733.446 3668.89,733.28 3670.5,734C 3772.09,809.483 3885.76,838.816 4011.5,822C 4041.31,816.349 4066.48,802.516 4087,780.5C 4105.48,754.369 4108.81,726.369 4097,696.5C 4087.06,679.23 4073.23,666.063 4055.5,657C 4027.76,642.976 3998.76,632.309 3968.5,625C 3935.25,616.02 3901.91,607.354 3868.5,599C 3827.95,587.485 3788.62,572.819 3750.5,555C 3657.85,506.183 3614.02,429.017 3619,323.5C 3626.17,208.412 3682,127.245 3786.5,80C 3826.57,63.5184 3868.23,53.5184 3911.5,50C 3928.63,48.474 3945.63,47.3073 3962.5,46.5 Z"/></g>
<g><path style="opacity:0.995" fill="#009091" d="M 1192.5,62.5 C 1335.51,62.084 1478.51,62.584 1621.5,64C 1760.86,75.9041 1871.7,137.737 1954,249.5C 1999.69,315.269 2025.36,388.269 2031,468.5C 2031.92,509.518 2031.59,550.518 2030,591.5C 2013.11,733.904 1944.61,843.404 1824.5,920C 1743.67,967.917 1656.17,989.75 1562,985.5C 1438.5,984.748 1315,984.248 1191.5,984C 1191,983.5 1190.5,983 1190,982.5C 1189.94,676.833 1190.28,371.167 1191,65.5C 1191.51,64.4734 1192.01,63.4734 1192.5,62.5 Z M 1532.5,236.5 C 1591.15,231.729 1646.48,242.896 1698.5,270C 1780.5,318.758 1826,390.925 1835,486.5C 1835.67,512.167 1835.67,537.833 1835,563.5C 1826.1,653.31 1783.93,722.477 1708.5,771C 1672.48,792.673 1633.48,805.339 1591.5,809C 1524.51,810.531 1457.51,810.864 1390.5,810C 1390,809.5 1389.5,809 1389,808.5C 1388.67,802.167 1388.33,795.833 1388,789.5C 1386.75,606.167 1386.08,422.834 1386,239.5C 1386.75,238.874 1387.58,238.374 1388.5,238C 1436.67,237.833 1484.67,237.333 1532.5,236.5 Z"/></g>
<g><path style="opacity:0.914" fill="#009091" d="M 6224.5,141.5 C 6265.33,137.472 6296.83,152.472 6319,186.5C 6333.32,213.59 6335.32,241.59 6325,270.5C 6310.67,302.486 6286.17,321.319 6251.5,327C 6204.64,330.498 6171.48,310.998 6152,268.5C 6137.74,222.616 6149.57,185.116 6187.5,156C 6199.05,148.883 6211.38,144.05 6224.5,141.5 Z M 6227.5,152.5 C 6276.65,150.51 6307.49,173.177 6320,220.5C 6324.48,262.66 6307.65,292.826 6269.5,311C 6227.96,324.374 6194.46,313.541 6169,278.5C 6150.95,245.742 6152.62,214.076 6174,183.5C 6188.27,166.791 6206.1,156.457 6227.5,152.5 Z"/></g>
<g><path style="opacity:0.935" fill="#009091" d="M 6233.5,189.5 C 6236.55,189.342 6239.38,190.009 6242,191.5C 6242.33,203.167 6242.67,214.833 6243,226.5C 6253.42,227.321 6263.92,227.821 6274.5,228C 6276.89,229.463 6277.89,231.629 6277.5,234.5C 6277.6,236.926 6276.93,239.093 6275.5,241C 6264.82,241.168 6254.15,241.668 6243.5,242.5C 6242.69,254.121 6242.19,265.787 6242,277.5C 6237.62,280.441 6233.62,280.107 6230,276.5C 6229.67,265.167 6229.33,253.833 6229,242.5C 6218.58,241.679 6208.08,241.179 6197.5,241C 6195.95,239.178 6195.29,237.011 6195.5,234.5C 6195.54,232.571 6195.87,230.738 6196.5,229C 6207.47,227.882 6218.47,227.382 6229.5,227.5C 6229.33,215.829 6229.5,204.162 6230,192.5C 6231.15,191.364 6232.31,190.364 6233.5,189.5 Z"/></g>
<g><path style="opacity:0.995" fill="#009091" d="M 2446.5,265.5 C 2568.25,258.322 2668.08,300.989 2746,393.5C 2798.58,463.426 2824.08,542.426 2822.5,630.5C 2823.89,715.815 2799.72,792.815 2750,861.5C 2678.4,950.921 2584.9,995.254 2469.5,994.5C 2335.02,993.372 2233.19,935.705 2164,821.5C 2131.94,761.742 2116.44,697.909 2117.5,630C 2115.99,541.55 2141.82,462.384 2195,392.5C 2260.31,313.93 2344.14,271.596 2446.5,265.5 Z M 2454.5,436.5 C 2528.71,433.933 2581.88,465.933 2614,532.5C 2634.07,584.57 2638.07,637.904 2626,692.5C 2615.37,741.086 2589.2,778.586 2547.5,805C 2494.11,832.879 2441.11,832.213 2388.5,803C 2348.44,776.215 2323.28,739.049 2313,691.5C 2300.95,636.448 2305.28,582.782 2326,530.5C 2351.85,475.836 2394.68,444.503 2454.5,436.5 Z"/></g>
<g><path style="opacity:0.994" fill="#009091" d="M 3230.5,265.5 C 3299.09,260.651 3363.76,274.151 3424.5,306C 3476.92,336.09 3515.76,378.59 3541,433.5C 3542.24,436.564 3543.08,439.731 3543.5,443C 3543.65,445.034 3542.98,446.701 3541.5,448C 3495.02,475.984 3448.52,503.818 3402,531.5C 3400.89,531.415 3399.89,531.081 3399,530.5C 3379.49,490.658 3349.33,462.158 3308.5,445C 3251.49,426.946 3199.49,436.279 3152.5,473C 3122.02,500.787 3102.52,534.953 3094,575.5C 3085.91,618.129 3087.25,660.462 3098,702.5C 3122.89,778.889 3175.39,819.889 3255.5,825.5C 3306.66,823.67 3347.83,802.67 3379,762.5C 3386.76,751.301 3394.26,739.968 3401.5,728.5C 3449.06,756.571 3496.23,785.238 3543,814.5C 3543.47,818.975 3542.8,823.309 3541,827.5C 3499.3,912.508 3432.13,965.675 3339.5,987C 3248.63,1005.97 3161.96,994.308 3079.5,952C 2974.55,890.703 2915.38,799.203 2902,677.5C 2892.81,599.961 2904.81,525.961 2938,455.5C 2990.74,356.494 3072.24,295.328 3182.5,272C 3198.56,269.161 3214.56,266.994 3230.5,265.5 Z"/></g>
<g><path style="opacity:0.994" fill="#009091" d="M 4691.5,265.5 C 4816.48,260.741 4914.64,309.075 4986,410.5C 5020.31,464.438 5039.65,523.438 5044,587.5C 5046,613.167 5046,638.833 5044,664.5C 5043.7,672.522 5042.54,680.355 5040.5,688C 4879.46,688.168 4718.46,688.668 4557.5,689.5C 4566.15,732.968 4588.15,768.135 4623.5,795C 4654.4,816.319 4688.74,827.652 4726.5,829C 4793.88,833.109 4850.88,811.109 4897.5,763C 4901.67,762.132 4904.84,763.632 4907,767.5C 4937.67,804.167 4968.33,840.833 4999,877.5C 4999.67,879.167 4999.67,880.833 4999,882.5C 4954.08,934.671 4897.92,968.838 4830.5,985C 4754.73,1001.39 4679.73,998.391 4605.5,976C 4500.38,939.881 4428.55,869.714 4390,765.5C 4360.87,676.709 4360.2,587.709 4388,498.5C 4426.02,384.75 4502.52,310.916 4617.5,277C 4641.93,270.65 4666.59,266.816 4691.5,265.5 Z M 4695.5,422.5 C 4781.08,419.856 4836.92,459.19 4863,540.5C 4865.51,549.365 4866.84,558.365 4867,567.5C 4763.24,568.665 4659.4,568.832 4555.5,568C 4559.85,523.305 4578.85,485.972 4612.5,456C 4636.97,436.899 4664.64,425.732 4695.5,422.5 Z"/></g>
<g><path style="opacity:0.995" fill="#009091" d="M 5872.5,265.5 C 5940.32,260.721 6004.98,272.554 6066.5,301C 6128.18,333.134 6169.01,382.634 6189,449.5C 6198.66,482.133 6203.99,515.466 6205,549.5C 6205.5,694.5 6205.67,839.5 6205.5,984.5C 6147.16,984.833 6088.83,984.5 6030.5,983.5C 6029.84,956.536 6029.18,929.536 6028.5,902.5C 5998.06,948.388 5955.72,977.221 5901.5,989C 5841.9,1001.28 5783.56,996.945 5726.5,976C 5648.04,942.178 5603.88,882.678 5594,797.5C 5589.59,681.609 5643.42,609.442 5755.5,581C 5785.75,573.841 5816.42,569.841 5847.5,569C 5903.91,568.522 5960.25,568.355 6016.5,568.5C 6019.81,522.887 6004.14,485.387 5969.5,456C 5951.45,442.484 5931.12,434.818 5908.5,433C 5825.99,423.07 5751.99,443.403 5686.5,494C 5685.22,494.684 5684.05,494.517 5683,493.5C 5661.47,447.251 5640.14,400.918 5619,354.5C 5618.33,352.833 5618.33,351.167 5619,349.5C 5682.93,304.179 5754.1,277.345 5832.5,269C 5845.98,267.711 5859.31,266.544 5872.5,265.5 Z M 5889.5,688.5 C 5931.83,688.333 5974.17,688.5 6016.5,689C 6031.96,753.342 6011.96,802.675 5956.5,837C 5911.54,860.311 5865.87,861.978 5819.5,842C 5786.21,822.247 5772.71,793.081 5779,754.5C 5786.65,720.856 5807.48,700.69 5841.5,694C 5857.5,690.754 5873.5,688.921 5889.5,688.5 Z"/></g>
<g><path style="opacity:0.997" fill="#009091" d="M 5529.5,266.5 C 5542.41,266.178 5555.25,266.511 5568,267.5C 5568.5,330.499 5568.67,393.499 5568.5,456.5C 5556.77,456.03 5545.1,454.863 5533.5,453C 5491.87,451.238 5453.87,461.905 5419.5,485C 5389.55,510.038 5370.72,541.871 5363,580.5C 5360.14,592.355 5358.14,604.355 5357,616.5C 5355.55,739.158 5355.05,861.825 5355.5,984.5C 5293.17,984.5 5230.83,984.5 5168.5,984.5C 5168.5,748.5 5168.5,512.5 5168.5,276.5C 5227.83,276.333 5287.17,276.5 5346.5,277C 5347.33,306.428 5347.83,335.928 5348,365.5C 5386.29,314.914 5436.79,283.414 5499.5,271C 5509.62,269.322 5519.62,267.822 5529.5,266.5 Z"/></g>
</svg>
