<?xml version="1.0" encoding="UTF-8" standalone="no"?>
<!DOCTYPE svg PUBLIC "-//W3C//DTD SVG 1.1//EN" "http://www.w3.org/Graphics/SVG/1.1/DTD/svg11.dtd">
<svg xmlns="http://www.w3.org/2000/svg" version="1.1" viewBox="0.00 0.00 1536.00 882.00">
<g fill="#000000">
<path d="
  M 774.25 155.78
  C 778.88 152.21 778.28 148.02 776.77 142.54
  Q 776.01 139.77 774.30 136.19
  Q 768.60 124.25 762.96 112.29
  Q 762.10 110.46 760.64 108.15
  C 758.04 104.03 753.98 100.03 752.19 96.48
  Q 744.50 81.28 748.73 65.95
  C 754.10 46.49 772.22 34.43 792.43 36.34
  C 807.51 37.76 819.86 47.62 825.69 61.22
  C 831.57 74.94 829.10 90.46 819.81 102.39
  C 817.61 105.21 815.89 107.83 814.63 110.48
  Q 806.13 128.25 801.66 137.48
  Q 799.79 141.33 799.42 144.15
  C 798.94 147.80 798.09 151.97 800.44 154.57
  Q 803.38 157.82 807.92 157.07
  Q 813.60 156.12 815.55 155.23
  Q 821.54 152.51 842.04 142.80
  Q 845.72 141.06 849.29 138.32
  Q 852.31 135.99 853.84 134.84
  C 862.95 128.00 873.81 125.41 885.07 127.14
  C 907.83 130.65 924.14 154.20 917.99 176.82
  Q 912.21 198.09 892.08 205.51
  Q 876.17 211.36 859.94 203.47
  C 855.35 201.23 850.33 196.24 845.88 194.12
  Q 831.72 187.39 817.58 180.63
  Q 814.50 179.16 811.27 178.61
  C 806.42 177.79 800.39 176.94 799.07 182.35
  C 798.41 185.03 799.40 188.54 800.76 191.40
  Q 810.53 211.98 817.82 227.51
  C 819.27 230.62 821.48 233.79 822.91 236.35
  Q 832.92 254.20 826.18 271.94
  C 822.21 282.37 814.68 290.44 804.48 294.93
  C 795.71 298.80 785.98 299.57 776.98 296.92
  C 752.58 289.76 740.79 263.87 750.91 240.66
  C 752.53 236.95 755.88 232.50 757.54 229.03
  Q 766.90 209.40 776.30 189.78
  Q 777.08 188.13 777.32 184.70
  C 777.59 180.59 774.41 177.60 770.37 178.06
  Q 767.43 178.39 765.07 179.37
  Q 760.88 181.13 732.02 194.86
  Q 727.76 196.89 722.55 199.82
  C 718.36 202.19 714.14 204.80 709.78 206.07
  C 691.52 211.42 672.84 204.61 662.70 188.17
  C 652.03 170.86 656.57 148.00 672.11 135.52
  Q 683.66 126.26 698.71 126.68
  Q 708.64 126.96 715.39 130.68
  C 721.79 134.22 726.80 137.29 732.82 140.09
  Q 735.36 141.27 765.55 155.72
  C 767.72 156.76 771.92 157.58 774.25 155.78
  Z"
/>
<path d="
  M 752.67 734.90
  L 769.62 693.63
  A 0.45 0.44 -60.8 0 1 770.30 693.43
  C 795.32 712.03 827.57 722.09 858.56 717.48
  C 871.46 715.57 885.56 708.55 886.41 693.61
  C 887.20 679.54 875.86 672.60 864.17 668.47
  C 826.34 655.10 767.68 652.95 758.33 602.25
  C 756.67 593.20 756.59 581.20 758.44 572.01
  Q 765.40 537.40 797.27 521.26
  C 811.58 514.02 826.77 511.39 843.22 510.60
  C 872.17 509.20 902.89 515.55 927.45 531.56
  A 1.13 1.12 -63.3 0 1 927.89 532.90
  L 912.21 574.19
  A 0.70 0.70 0.0 0 1 911.18 574.53
  Q 889.79 560.99 864.80 557.10
  C 857.58 555.98 850.82 555.93 843.51 556.23
  C 826.33 556.91 807.23 564.74 808.19 585.29
  C 808.88 599.93 824.46 606.31 836.47 609.54
  Q 852.09 613.75 865.16 616.86
  Q 872.60 618.64 887.48 623.89
  C 900.21 628.38 914.55 635.80 923.36 646.04
  Q 933.32 657.63 936.23 672.14
  Q 938.98 685.88 936.83 699.74
  C 931.09 736.58 900.44 758.31 865.00 762.78
  Q 822.42 768.15 782.72 753.08
  Q 766.52 746.93 753.11 736.56
  A 1.42 1.42 0.0 0 1 752.67 734.90
  Z"
/>
<path d="
  M 334.03 637.30
  Q 334.03 651.03 331.65 664.65
  C 330.88 669.02 329.65 673.33 328.31 678.55
  Q 327.40 682.06 326.65 684.02
  Q 306.10 737.59 252.07 754.34
  C 237.32 758.91 222.52 760.04 205.75 760.06
  Q 154.22 760.12 110.47 760.06
  A 0.74 0.72 75.4 0 1 109.83 759.67
  Q 109.72 759.45 109.72 759.00
  Q 109.67 698.15 109.67 637.31
  Q 109.67 576.46 109.71 515.61
  Q 109.71 515.16 109.82 514.94
  A 0.74 0.72 -75.4 0 1 110.46 514.55
  Q 154.21 514.49 205.74 514.55
  C 222.51 514.56 237.31 515.69 252.06 520.26
  Q 306.09 537.01 326.65 590.58
  Q 327.40 592.54 328.31 596.05
  C 329.65 601.27 330.88 605.58 331.65 609.95
  Q 334.02 623.57 334.03 637.30
  Z
  M 161.62 637.24
  Q 161.62 662.78 161.62 713.06
  A 0.56 0.55 0.2 0 0 162.18 713.61
  Q 199.06 713.64 209.75 713.57
  C 240.91 713.37 266.15 697.96 276.90 667.73
  C 280.38 657.96 281.60 647.59 281.60 637.24
  C 281.60 626.90 280.38 616.53 276.91 606.76
  C 266.16 576.53 240.92 561.12 209.76 560.91
  Q 199.07 560.84 162.19 560.87
  A 0.56 0.55 -0.2 0 0 161.63 561.42
  Q 161.62 611.70 161.62 637.24
  Z"
/>
<path d="
  M 1455.6500 584.9469
  A 24.83 24.54 89.1 0 1 1430.7230 560.5055
  A 24.83 24.54 89.1 0 1 1454.8700 535.2931
  A 24.83 24.54 89.1 0 1 1479.7970 559.7345
  A 24.83 24.54 89.1 0 1 1455.6500 584.9469
  Z
  M 1454.8315 582.4559
  A 22.32 22.05 91.1 0 0 1477.3059 560.5633
  A 22.32 22.05 91.1 0 0 1455.6885 537.8241
  A 22.32 22.05 91.1 0 0 1433.2141 559.7167
  A 22.32 22.05 91.1 0 0 1454.8315 582.4559
  Z"
/>
<path d="
  M 1454.64 548.11
  Q 1455.42 548.11 1455.79 548.34
  Q 1456.21 548.61 1456.21 549.11
  L 1456.21 557.57
  A 0.78 0.78 0.0 0 0 1456.99 558.35
  L 1464.32 558.35
  Q 1464.83 558.35 1465.14 558.74
  Q 1465.55 559.28 1465.55 559.99
  Q 1465.55 560.71 1465.13 561.25
  Q 1464.83 561.64 1464.32 561.64
  L 1456.99 561.63
  A 0.78 0.78 0.0 0 0 1456.21 562.41
  L 1456.20 570.87
  Q 1456.20 571.37 1455.78 571.64
  Q 1455.41 571.87 1454.63 571.87
  Q 1453.85 571.87 1453.48 571.64
  Q 1453.06 571.37 1453.06 570.87
  L 1453.06 562.41
  A 0.78 0.78 0.0 0 0 1452.28 561.63
  L 1444.95 561.63
  Q 1444.44 561.63 1444.14 561.23
  Q 1443.72 560.70 1443.72 559.98
  Q 1443.72 559.27 1444.14 558.73
  Q 1444.44 558.33 1444.95 558.34
  L 1452.28 558.34
  A 0.78 0.78 0.0 0 0 1453.06 557.56
  L 1453.07 549.10
  Q 1453.07 548.60 1453.49 548.34
  Q 1453.86 548.11 1454.64 548.11
  Z"
/>
<path d="
  M 450.27 568.46
  C 465.02 568.40 480.79 571.35 493.87 578.16
  C 527.47 595.64 544.48 627.88 544.63 665.26
  C 544.77 702.63 528.01 735.01 494.55 752.75
  C 481.51 759.66 465.77 762.73 451.02 762.78
  C 436.28 762.84 420.51 759.90 407.42 753.09
  C 373.82 735.60 356.82 703.36 356.67 665.98
  C 356.53 628.61 373.29 596.23 406.75 578.49
  C 419.78 571.58 435.53 568.51 450.27 568.46
  Z
  M 406.79 665.85
  C 406.79 676.88 408.74 687.20 414.24 696.77
  C 421.91 710.13 434.84 717.87 450.51 717.86
  C 466.17 717.86 479.10 710.11 486.77 696.74
  C 492.25 687.17 494.20 676.85 494.19 665.82
  C 494.19 654.78 492.24 644.47 486.74 634.90
  C 479.07 621.54 466.14 613.80 450.47 613.80
  C 434.81 613.81 421.88 621.56 414.22 634.92
  C 408.73 644.50 406.79 654.81 406.79 665.85
  Z"
/>
<path d="
  M 615.45 665.74
  C 615.46 682.29 620.13 697.61 632.97 708.27
  C 645.99 719.09 665.41 720.76 680.12 712.62
  C 688.13 708.18 694.28 700.73 698.36 692.50
  A 0.63 0.62 28.6 0 1 699.25 692.24
  L 736.47 714.76
  A 0.85 0.84 26.9 0 1 736.82 715.81
  C 719.96 756.32 676.53 769.22 636.38 760.18
  C 606.85 753.54 583.09 732.28 572.20 704.35
  C 567.29 691.72 565.37 679.24 565.37 665.76
  C 565.36 652.27 567.27 639.79 572.17 627.16
  C 583.04 599.22 606.78 577.94 636.30 571.28
  C 676.45 562.20 719.89 575.07 736.78 615.57
  A 0.85 0.84 -27.0 0 1 736.43 616.62
  L 699.23 639.17
  A 0.63 0.62 -28.7 0 1 698.34 638.91
  C 694.25 630.68 688.10 623.23 680.08 618.80
  C 665.37 610.67 645.95 612.36 632.93 623.19
  C 620.11 633.86 615.45 649.18 615.45 665.74
  Z"
/>
<path d="
  M 1006.78 681.68
  Q 1007.12 684.46 1008.24 687.55
  C 1017.22 712.32 1039.41 721.34 1064.42 718.38
  Q 1083.74 716.10 1097.91 701.21
  A 0.71 0.71 0.0 0 1 1098.97 701.24
  L 1124.51 731.74
  A 0.90 0.89 45.3 0 1 1124.51 732.89
  C 1111.83 748.12 1094.88 757.30 1075.43 760.93
  Q 1050.65 765.56 1025.86 759.40
  Q 1006.37 754.56 990.48 741.56
  Q 966.53 721.98 959.52 690.75
  C 952.83 660.96 957.72 627.98 976.31 603.06
  C 996.89 575.47 1031.47 564.04 1065.25 570.11
  C 1100.59 576.46 1126.48 603.69 1134.09 638.16
  Q 1138.73 659.18 1136.07 680.60
  A 0.60 0.59 -86.1 0 1 1135.48 681.12
  L 1007.28 681.12
  Q 1006.71 681.12 1006.78 681.68
  Z
  M 1048.04 649.18
  Q 1086.19 649.18 1089.40 649.16
  A 0.63 0.63 0.0 0 0 1090.02 648.45
  C 1087.50 630.05 1076.05 615.32 1057.61 610.90
  Q 1054.12 610.06 1048.05 610.06
  Q 1041.97 610.06 1038.48 610.90
  C 1020.04 615.32 1008.59 630.04 1006.07 648.44
  A 0.63 0.63 0.0 0 0 1006.69 649.16
  Q 1009.90 649.18 1048.04 649.18
  Z"
/>
<path d="
  M 1218.28 594.96
  C 1231.49 576.30 1253.51 568.23 1275.89 568.60
  A 0.62 0.62 0.0 0 1 1276.50 569.22
  L 1276.50 618.78
  A 0.55 0.55 0.0 0 1 1275.83 619.32
  Q 1264.62 616.91 1253.35 619.37
  C 1229.04 624.70 1219.87 645.53 1219.84 668.75
  Q 1219.79 714.00 1219.87 759.05
  Q 1219.87 760.11 1218.80 760.11
  L 1170.34 760.11
  A 0.26 0.26 0.0 0 1 1170.08 759.85
  L 1170.08 571.94
  Q 1170.08 571.44 1170.58 571.44
  L 1216.60 571.44
  Q 1217.52 571.44 1217.52 572.36
  L 1217.52 594.72
  Q 1217.52 596.04 1218.28 594.96
  Z"
/>
<path d="
  M 1398.76 738.51
  C 1391.56 749.13 1382.49 756.33 1369.68 759.95
  C 1351.18 765.17 1328.50 763.82 1311.64 754.22
  C 1290.03 741.92 1280.42 719.32 1284.42 695.03
  C 1290.25 659.60 1322.37 649.94 1353.51 649.56
  Q 1376.18 649.29 1395.84 649.56
  A 0.81 0.81 0.0 0 0 1396.66 648.73
  C 1396.38 632.12 1389.59 619.26 1373.46 614.10
  C 1369.96 612.98 1363.02 612.08 1358.84 612.06
  Q 1330.26 611.92 1307.84 629.17
  Q 1307.39 629.52 1307.15 629.00
  L 1290.25 592.03
  A 0.98 0.98 0.0 0 1 1290.54 590.84
  C 1303.74 580.67 1319.05 574.69 1335.48 571.42
  C 1376.52 563.26 1426.31 570.44 1441.10 615.51
  Q 1446.03 630.55 1446.23 648.06
  Q 1446.41 663.52 1446.31 759.34
  A 0.76 0.76 0.0 0 1 1445.55 760.10
  L 1400.29 760.10
  A 0.58 0.58 0.0 0 1 1399.71 759.52
  L 1399.71 738.80
  Q 1399.71 737.11 1398.76 738.51
  Z
  M 1350.88 682.11
  C 1337.07 684.08 1330.15 694.85 1332.57 708.13
  C 1334.42 718.27 1343.11 723.95 1353.14 725.40
  Q 1370.17 727.84 1383.74 718.74
  C 1389.94 714.58 1396.94 705.06 1396.67 696.59
  Q 1396.54 692.52 1396.61 681.61
  A 0.46 0.46 0.0 0 0 1396.15 681.14
  Q 1367.53 681.04 1358.50 681.27
  Q 1356.31 681.33 1350.88 682.11
  Z"
/>
</g>
</svg>
