<?xml version="1.0" encoding="UTF-8" standalone="no"?>
<!DOCTYPE svg PUBLIC "-//W3C//DTD SVG 1.1//EN" "http://www.w3.org/Graphics/SVG/1.1/DTD/svg11.dtd">
<svg xmlns="http://www.w3.org/2000/svg" version="1.1" viewBox="0.00 0.00 1536.00 257.00">
<g fill="#ffffff">
<path d="
  M 123.95 146.80
  Q 122.57 145.10 120.49 144.52
  C 118.83 144.06 115.42 145.04 113.76 145.81
  Q 84.97 159.22 79.93 161.98
  C 75.65 164.33 70.62 167.35 66.95 168.85
  Q 56.13 173.26 44.90 170.52
  C 14.70 163.16 6.30 123.92 31.63 105.26
  Q 43.20 96.73 58.81 98.60
  C 65.57 99.41 71.52 102.91 77.60 106.53
  Q 79.82 107.85 85.33 110.50
  Q 107.76 121.28 115.07 124.67
  C 119.64 126.80 124.16 124.77 125.36 119.86
  C 126.00 117.28 124.70 112.38 123.61 110.00
  Q 117.38 96.28 111.67 84.35
  C 109.61 80.05 103.87 74.44 101.70 69.82
  Q 97.11 60.06 98.18 49.52
  C 99.40 37.52 106.47 27.24 116.72 21.30
  C 131.16 12.94 150.68 16.38 161.82 28.66
  Q 171.66 39.51 171.47 54.35
  Q 171.32 66.68 162.30 77.80
  Q 160.73 79.74 157.95 85.41
  Q 155.96 89.47 147.01 108.01
  Q 145.34 111.47 145.00 113.98
  C 144.46 117.92 143.77 121.57 146.95 124.46
  C 149.19 126.51 154.46 125.59 156.74 124.90
  Q 160.65 123.71 165.17 121.44
  Q 165.33 121.36 180.40 114.16
  Q 185.81 111.58 187.60 110.34
  C 190.80 108.13 195.61 104.07 199.58 102.08
  Q 207.63 98.05 216.98 98.25
  C 240.99 98.76 258.42 122.34 251.26 145.35
  C 244.99 165.52 224.20 175.76 204.24 169.53
  Q 198.60 167.77 191.46 162.07
  Q 190.44 161.26 186.56 159.26
  Q 175.95 153.78 160.38 146.49
  Q 157.69 145.23 151.59 144.40
  Q 146.09 143.65 144.50 149.29
  C 143.96 151.22 145.86 156.01 146.96 158.29
  Q 152.31 169.33 160.83 187.60
  C 162.37 190.90 164.91 194.90 166.12 197.07
  Q 171.51 206.74 171.66 216.53
  C 171.72 221.02 169.81 228.07 167.79 232.14
  Q 161.04 245.77 146.97 250.83
  Q 137.32 254.31 127.43 252.23
  C 104.81 247.48 92.14 224.06 100.66 202.38
  C 102.67 197.25 106.38 192.20 108.86 186.99
  Q 119.64 164.41 124.46 154.20
  C 125.18 152.67 125.33 148.50 123.95 146.80
  Z"
/>
<path d="
  M 938.87 157.85
  C 926.20 153.80 914.78 149.60 904.92 141.89
  C 893.85 133.25 886.38 120.47 885.08 106.22
  Q 884.88 104.07 884.40 100.74
  Q 883.98 97.80 884.59 91.55
  Q 885.14 85.90 885.81 82.38
  C 889.91 60.95 903.43 45.05 922.79 36.03
  Q 931.00 32.21 939.51 30.35
  Q 956.60 26.62 975.99 27.32
  Q 981.81 27.53 996.46 30.17
  C 1010.91 32.76 1025.36 38.12 1037.62 46.29
  A 1.36 1.36 0.0 0 1 1038.14 47.90
  L 1024.12 84.88
  Q 1023.85 85.59 1023.21 85.18
  Q 1008.95 76.08 992.53 71.71
  Q 989.88 71.01 983.53 69.80
  C 974.65 68.11 965.72 68.12 956.79 69.11
  Q 950.86 69.77 944.63 72.64
  Q 927.01 80.74 931.58 100.24
  C 932.24 103.05 936.18 107.20 938.88 109.15
  Q 945.37 113.83 953.50 116.02
  Q 960.45 117.88 972.17 121.00
  Q 973.09 121.24 978.90 122.51
  C 985.95 124.05 992.89 126.40 999.63 128.70
  C 1009.78 132.17 1019.40 136.68 1027.81 143.35
  C 1036.51 150.25 1043.02 160.67 1045.39 171.30
  Q 1046.88 178.01 1047.16 185.11
  Q 1047.41 191.72 1046.13 198.87
  Q 1040.72 228.95 1013.35 244.33
  Q 999.26 252.25 984.76 254.12
  Q 969.52 256.09 960.75 256.00
  Q 955.63 255.96 944.92 254.87
  C 930.92 253.46 917.14 249.82 904.34 244.57
  Q 891.63 239.36 880.73 230.88
  Q 880.09 230.38 880.39 229.63
  L 895.73 192.27
  Q 895.94 191.75 896.40 192.09
  Q 921.96 211.25 953.67 214.31
  C 967.84 215.67 989.17 214.88 997.80 201.75
  Q 1001.33 196.38 1000.73 188.99
  C 1000.16 181.96 995.55 177.00 989.47 173.67
  Q 983.32 170.30 977.74 168.58
  Q 966.02 164.96 951.76 161.50
  Q 945.57 159.99 938.87 157.85
  Z"
/>
<path d="
  M 301.72 31.81
  A 0.89 0.89 0.0 0 1 302.61 30.93
  L 397.88 31.09
  A 105.58 103.93 0.1 0 1 503.28 135.21
  L 503.26 148.49
  A 105.58 103.93 0.1 0 1 397.50 252.23
  L 302.23 252.07
  A 0.89 0.89 0.0 0 1 301.34 251.17
  L 301.72 31.81
  Z
  M 348.07 74.00
  L 348.78 209.44
  A 1.20 1.20 0.0 0 0 349.98 210.64
  L 392.85 210.41
  A 63.93 63.90 -0.3 0 0 456.45 146.18
  L 456.39 136.14
  A 63.93 63.90 -0.3 0 0 392.13 72.57
  L 349.26 72.80
  A 1.20 1.20 0.0 0 0 348.07 74.00
  Z"
/>
<path d="
  M 1513.4772 94.4251
  A 22.31 22.19 88.8 0 1 1490.8249 72.5847
  A 22.31 22.19 88.8 0 1 1512.5428 49.8149
  A 22.31 22.19 88.8 0 1 1535.1951 71.6553
  A 22.31 22.19 88.8 0 1 1513.4772 94.4251
  Z
  M 1532.91 72.15
  A 19.91 19.91 0.0 0 0 1513.00 52.24
  A 19.91 19.91 0.0 0 0 1493.09 72.15
  A 19.91 19.91 0.0 0 0 1513.00 92.06
  A 19.91 19.91 0.0 0 0 1532.91 72.15
  Z"
/>
<path d="
  M 1512.39 61.52
  Q 1513.01 61.52 1513.42 61.78
  A 0.93 0.91 16.2 0 1 1513.86 62.56
  L 1513.86 70.06
  A 0.63 0.62 90.0 0 0 1514.48 70.69
  L 1521.26 70.69
  Q 1521.79 70.69 1521.97 71.18
  Q 1522.18 71.74 1522.18 72.17
  Q 1522.18 72.60 1521.97 73.16
  Q 1521.79 73.65 1521.26 73.65
  L 1514.48 73.66
  A 0.63 0.62 89.9 0 0 1513.86 74.29
  L 1513.87 81.79
  A 0.93 0.91 -16.3 0 1 1513.43 82.57
  Q 1513.02 82.82 1512.41 82.83
  Q 1511.79 82.83 1511.38 82.57
  A 0.93 0.91 16.2 0 1 1510.94 81.79
  L 1510.94 74.29
  A 0.63 0.62 90.0 0 0 1510.32 73.66
  L 1503.54 73.66
  Q 1503.01 73.66 1502.83 73.17
  Q 1502.62 72.61 1502.62 72.18
  Q 1502.62 71.75 1502.83 71.19
  Q 1503.01 70.70 1503.54 70.70
  L 1510.32 70.69
  A 0.63 0.62 89.9 0 0 1510.94 70.06
  L 1510.93 62.56
  A 0.93 0.91 -16.3 0 1 1511.37 61.78
  Q 1511.78 61.52 1512.39 61.52
  Z"
/>
<path d="
  M 608.37 79.72
  Q 614.19 79.71 617.61 80.03
  Q 639.38 82.07 655.82 93.22
  C 681.11 110.37 693.03 136.75 693.10 166.90
  C 693.17 197.06 681.37 223.49 656.16 240.76
  Q 639.78 251.99 618.01 254.13
  Q 614.59 254.47 608.77 254.48
  Q 602.94 254.49 599.52 254.17
  Q 577.75 252.13 561.31 240.98
  C 536.02 223.83 524.10 197.45 524.03 167.29
  C 523.96 137.14 535.76 110.70 560.97 93.44
  Q 577.36 82.21 599.12 80.07
  Q 602.54 79.73 608.37 79.72
  Z
  M 569.16 167.31
  Q 569.17 177.26 571.76 185.79
  C 576.82 202.51 590.64 214.12 608.48 214.11
  C 626.32 214.10 640.12 202.46 645.16 185.73
  Q 647.73 177.20 647.72 167.25
  Q 647.71 157.31 645.13 148.78
  C 640.06 132.06 626.25 120.44 608.41 120.46
  C 590.57 120.47 576.77 132.11 571.73 148.83
  Q 569.16 157.37 569.16 167.31
  Z"
/>
<path d="
  M 756.92 167.18
  Q 756.92 173.32 758.19 180.47
  Q 759.52 188.01 763.69 194.85
  Q 772.07 208.61 786.90 212.67
  Q 796.71 215.35 806.64 212.80
  C 818.03 209.88 826.23 201.60 831.73 191.15
  A 0.41 0.41 0.0 0 1 832.31 190.98
  L 865.63 211.17
  Q 866.09 211.44 866.04 211.97
  Q 865.89 213.47 865.26 214.76
  Q 852.80 240.64 825.72 250.20
  C 807.68 256.57 785.85 255.93 769.08 250.38
  C 744.51 242.25 724.65 223.23 716.56 198.03
  Q 714.13 190.46 713.17 185.06
  Q 711.91 177.96 711.91 167.18
  Q 711.91 156.40 713.17 149.31
  Q 714.13 143.91 716.56 136.34
  C 724.65 111.14 744.51 92.12 769.08 83.99
  C 785.85 78.44 807.68 77.80 825.72 84.17
  Q 852.80 93.72 865.26 119.60
  Q 865.89 120.89 866.04 122.39
  Q 866.09 122.92 865.63 123.19
  L 832.31 143.38
  A 0.41 0.41 0.0 0 1 831.73 143.21
  C 826.23 132.77 818.03 124.49 806.64 121.57
  Q 796.71 119.02 786.90 121.70
  Q 772.07 125.76 763.69 139.52
  Q 759.52 146.36 758.19 153.89
  Q 756.92 161.05 756.92 167.18
  Z"
/>
<path d="
  M 1110.28 180.99
  Q 1108.82 180.99 1109.21 182.40
  C 1116.10 207.25 1136.50 217.68 1161.38 214.50
  Q 1179.02 212.25 1191.17 199.17
  A 0.76 0.75 -43.6 0 1 1192.31 199.19
  L 1215.20 226.54
  Q 1215.68 227.10 1215.21 227.67
  C 1200.63 245.48 1178.21 254.22 1155.27 254.69
  Q 1138.50 255.03 1123.91 250.85
  C 1092.26 241.77 1070.41 215.77 1065.40 183.30
  C 1058.37 137.78 1080.34 92.13 1127.82 81.55
  Q 1138.60 79.14 1152.43 79.96
  C 1179.87 81.57 1203.05 96.92 1216.02 120.98
  C 1225.52 138.63 1228.11 160.48 1225.60 180.50
  Q 1225.54 180.99 1225.05 180.99
  L 1110.28 180.99
  Z
  M 1146.40 152.37
  Q 1164.85 152.37 1183.54 152.39
  A 0.56 0.55 87.4 0 0 1184.09 151.77
  Q 1183.27 144.02 1179.53 136.99
  C 1172.68 124.13 1161.08 117.11 1146.40 117.11
  C 1131.71 117.11 1120.11 124.13 1113.27 136.99
  Q 1109.52 144.02 1108.70 151.77
  A 0.56 0.55 -87.4 0 0 1109.26 152.38
  Q 1127.95 152.37 1146.40 152.37
  Z"
/>
<path d="
  M 1298.98 103.22
  Q 1298.98 104.33 1299.63 103.43
  C 1311.55 87.02 1331.38 78.97 1351.42 79.91
  Q 1351.98 79.93 1351.98 80.48
  L 1351.98 124.85
  Q 1351.98 125.41 1351.42 125.36
  Q 1348.12 125.07 1344.26 124.52
  C 1340.98 124.05 1337.43 124.60 1335.21 124.91
  Q 1311.76 128.14 1304.46 149.13
  Q 1301.64 157.22 1301.10 165.78
  Q 1300.97 167.83 1300.99 182.73
  Q 1301.02 217.60 1301.00 251.60
  A 0.53 0.52 -0.0 0 1 1300.47 252.12
  L 1256.76 252.12
  A 0.61 0.61 0.0 0 1 1256.15 251.51
  L 1256.15 82.79
  A 0.56 0.56 0.0 0 1 1256.71 82.23
  L 1298.21 82.23
  A 0.77 0.77 0.0 0 1 1298.98 83.00
  L 1298.98 103.22
  Z"
/>
<path d="
  M 1462.99 232.73
  A 0.40 0.40 0.0 0 0 1462.26 232.52
  C 1449.55 252.61 1425.10 257.33 1403.16 253.66
  Q 1393.87 252.11 1385.89 248.06
  Q 1367.31 238.64 1360.80 218.89
  Q 1357.73 209.59 1358.32 200.49
  Q 1358.94 190.96 1362.24 182.68
  C 1367.96 168.34 1380.29 160.14 1395.01 156.00
  Q 1397.57 155.28 1404.32 154.01
  Q 1408.16 153.29 1410.20 153.26
  C 1412.91 153.21 1415.33 152.62 1418.12 152.58
  Q 1438.60 152.30 1459.41 152.58
  A 0.59 0.59 0.0 0 0 1460.00 152.02
  C 1460.38 141.90 1456.86 131.91 1448.96 125.63
  Q 1443.35 121.18 1436.74 120.10
  Q 1405.56 115.01 1380.38 134.33
  A 0.47 0.47 0.0 0 1 1379.66 134.16
  L 1364.27 100.53
  Q 1364.07 100.11 1364.45 99.83
  C 1388.81 81.93 1420.13 76.95 1449.77 81.10
  Q 1453.45 81.62 1461.59 84.24
  C 1488.10 92.78 1500.99 112.84 1504.19 139.75
  Q 1504.88 145.59 1504.91 155.79
  Q 1504.97 183.45 1504.95 251.60
  Q 1504.95 252.12 1504.43 252.12
  L 1463.54 252.12
  A 0.55 0.55 0.0 0 1 1462.99 251.57
  L 1462.99 232.73
  Z
  M 1420.46 181.92
  C 1410.69 182.90 1403.43 188.17 1402.36 198.18
  C 1401.02 210.69 1408.30 218.44 1420.13 220.77
  C 1435.10 223.71 1451.58 217.40 1458.44 202.93
  Q 1460.06 199.53 1460.07 196.00
  Q 1460.10 187.41 1460.09 181.65
  Q 1460.09 181.04 1459.48 181.03
  Q 1442.16 180.77 1424.75 181.24
  C 1423.65 181.27 1421.49 181.82 1420.46 181.92
  Z"
/>
</g>
</svg>
