<?xml version="1.0" encoding="UTF-8" standalone="no"?>
<!DOCTYPE svg PUBLIC "-//W3C//DTD SVG 1.1//EN" "http://www.w3.org/Graphics/SVG/1.1/DTD/svg11.dtd">
<svg xmlns="http://www.w3.org/2000/svg" version="1.1" viewBox="0.00 0.00 1433.00 1463.00">
<path fill="#ffffff" d="
  M 673.23 784.73
  C 665.81 777.51 661.79 772.02 652.77 772.42
  Q 642.21 772.88 632.40 775.11
  Q 627.32 776.27 618.19 780.60
  Q 586.51 795.62 468.22 851.54
  Q 460.13 855.36 455.38 858.23
  C 449.86 861.57 444.61 863.95 438.44 867.53
  C 428.47 873.33 417.77 880.14 408.48 884.61
  Q 357.14 909.29 300.53 899.81
  C 244.54 890.43 196.03 852.94 171.69 802.13
  C 149.01 754.78 148.63 699.33 170.73 651.74
  C 215.10 556.22 332.58 520.27 422.98 575.18
  C 430.61 579.82 436.66 583.23 443.59 587.02
  C 448.61 589.76 454.66 594.07 459.74 596.51
  Q 610.12 668.41 622.62 674.39
  Q 629.80 677.82 635.03 678.96
  Q 645.92 681.33 657.80 680.15
  Q 659.76 679.96 662.19 677.68
  C 672.26 668.26 678.00 663.41 678.94 651.49
  C 679.34 646.39 678.93 639.49 677.70 634.29
  Q 676.55 629.46 676.20 625.07
  C 675.80 619.94 674.27 614.96 672.85 610.57
  Q 672.01 607.99 670.59 605.02
  Q 639.18 539.53 614.44 486.62
  Q 611.25 479.80 608.06 474.25
  Q 603.37 466.08 601.16 462.55
  Q 600.76 461.92 599.05 460.03
  Q 590.79 450.85 585.97 444.90
  Q 560.19 413.12 550.99 373.56
  Q 549.86 368.70 548.20 358.55
  C 546.29 346.96 546.77 333.61 546.94 323.28
  Q 547.10 313.26 548.12 308.55
  C 549.25 303.34 549.92 297.42 551.14 292.54
  C 562.18 248.39 588.07 210.90 625.96 185.79
  Q 653.30 167.68 685.23 160.77
  Q 691.77 159.36 697.26 158.42
  Q 704.69 157.16 709.37 157.07
  Q 726.34 156.73 739.15 157.16
  C 745.56 157.37 752.22 159.09 758.32 159.99
  Q 761.95 160.52 765.92 161.55
  Q 813.12 173.81 846.64 206.27
  Q 883.42 241.90 896.18 293.61
  Q 896.63 295.44 897.40 300.33
  C 898.21 305.45 899.66 310.71 899.86 316.04
  Q 900.40 329.70 900.01 346.00
  Q 899.80 355.15 898.96 358.73
  C 897.75 363.96 896.98 369.88 895.86 374.42
  Q 886.89 410.79 866.06 438.58
  Q 863.36 442.19 854.40 453.16
  Q 853.80 453.88 850.44 459.71
  C 847.70 464.46 844.54 468.74 841.91 473.49
  Q 839.92 477.09 828.15 502.03
  Q 809.92 540.62 778.86 604.82
  C 777.20 608.27 776.28 611.47 775.04 614.90
  Q 774.43 616.60 774.13 619.11
  C 773.45 624.92 773.12 628.57 772.16 633.64
  Q 770.18 644.07 770.79 654.26
  Q 771.17 660.60 772.58 664.21
  Q 773.44 666.41 777.16 670.18
  Q 780.84 673.90 786.40 679.02
  Q 788.34 680.80 790.68 681.17
  C 796.05 682.01 801.17 682.44 807.46 681.56
  C 823.55 679.32 833.84 678.58 846.06 672.80
  Q 927.44 634.33 971.47 613.48
  Q 976.20 611.24 981.46 606.93
  Q 995.70 595.24 1011.13 583.86
  Q 1045.54 558.50 1087.42 551.71
  C 1198.59 533.67 1297.75 622.17 1292.36 734.71
  C 1287.09 844.67 1182.87 922.73 1075.83 897.80
  Q 1036.12 888.55 1005.47 863.40
  Q 995.96 855.60 986.83 849.59
  Q 981.43 846.03 969.20 840.18
  Q 883.02 798.89 843.34 780.03
  Q 836.51 776.79 826.20 775.50
  Q 823.65 775.18 807.12 772.98
  C 798.34 771.81 787.99 770.86 781.86 776.86
  Q 778.09 780.54 774.40 784.43
  Q 770.55 788.50 770.56 794.34
  Q 770.58 805.85 773.09 816.37
  Q 774.40 821.88 778.27 829.96
  Q 818.95 914.91 857.24 997.01
  C 860.40 1003.78 865.21 1008.94 868.72 1015.44
  Q 871.02 1019.72 877.77 1031.46
  Q 888.84 1050.72 894.69 1072.66
  C 896.29 1078.69 897.52 1085.54 898.71 1091.89
  C 900.36 1100.76 900.16 1108.96 900.10 1121.00
  Q 900.03 1134.73 899.60 1139.17
  C 899.19 1143.27 897.62 1148.65 897.25 1152.07
  Q 896.81 1156.28 895.68 1159.82
  C 894.83 1162.51 893.91 1166.86 892.94 1169.99
  C 874.22 1230.37 826.36 1275.02 764.94 1290.50
  C 759.17 1291.95 754.52 1292.37 747.99 1293.68
  Q 745.94 1294.09 741.51 1294.37
  Q 731.25 1295.02 713.27 1294.79
  Q 702.77 1294.65 698.54 1293.68
  C 693.38 1292.49 687.05 1291.75 682.59 1290.63
  C 618.45 1274.63 569.73 1227.30 552.22 1163.50
  Q 551.03 1159.16 549.82 1152.27
  C 548.38 1144.12 547.62 1141.15 547.24 1135.55
  Q 546.63 1126.29 546.96 1107.54
  Q 547.13 1097.80 548.15 1092.71
  Q 549.82 1084.42 550.26 1082.10
  Q 554.71 1058.95 566.60 1036.20
  C 570.08 1029.55 575.30 1021.55 579.48 1014.37
  C 582.91 1008.48 589.08 999.11 592.85 991.10
  Q 632.10 907.75 671.77 826.01
  C 673.65 822.15 675.39 818.03 675.83 813.32
  Q 676.05 810.98 677.04 803.82
  C 677.81 798.18 677.64 789.02 673.23 784.73
  Z"
/>
</svg>
