<?xml version="1.0" encoding="UTF-8"?>
<!DOCTYPE svg PUBLIC "-//W3C//DTD SVG 1.1//EN" "http://www.w3.org/Graphics/SVG/1.1/DTD/svg11.dtd">
<svg xmlns="http://www.w3.org/2000/svg" version="1.1" width="2000px" height="1924px" style="shape-rendering:geometricPrecision; text-rendering:geometricPrecision; image-rendering:optimizeQuality; fill-rule:evenodd; clip-rule:evenodd" xmlns:xlink="http://www.w3.org/1999/xlink">
<g><path style="opacity:0.988" fill="#f9faf9" d="M 963.5,-0.5 C 985.5,-0.5 1007.5,-0.5 1029.5,-0.5C 1136.84,15.3401 1218,70.0068 1273,163.5C 1312,235.856 1321.33,311.856 1301,391.5C 1295.43,409.184 1288.1,426.184 1279,442.5C 1223.31,526.609 1175.65,615.275 1136,708.5C 1124.03,737.376 1114.36,767.043 1107,797.5C 1104.58,811.065 1103.91,824.732 1105,838.5C 1108.33,853.159 1117.16,862.659 1131.5,867C 1147.15,870.285 1162.82,870.285 1178.5,867C 1191.97,864.173 1205.3,860.84 1218.5,857C 1259.42,842.211 1299.42,825.211 1338.5,806C 1397.95,774.56 1456.95,742.226 1515.5,709C 1537.28,697.442 1559.28,686.442 1581.5,676C 1691.99,629.477 1794.65,642.477 1889.5,715C 1937.96,757.064 1971.46,808.898 1990,870.5C 1993.89,886.14 1997.06,901.807 1999.5,917.5C 1999.5,944.167 1999.5,970.833 1999.5,997.5C 1985.18,1091.66 1939.18,1166.16 1861.5,1221C 1775.45,1273.81 1685.45,1281.47 1591.5,1244C 1569.83,1233.83 1548.49,1223.16 1527.5,1212C 1471.52,1179.52 1415.19,1147.85 1358.5,1117C 1317.98,1095.82 1276.31,1077.16 1233.5,1061C 1208.31,1051.37 1182.31,1045.2 1155.5,1042.5C 1140.79,1042.57 1127.45,1046.74 1115.5,1055C 1110.53,1061.44 1107.03,1068.61 1105,1076.5C 1104.33,1085.5 1104.33,1094.5 1105,1103.5C 1111.18,1134.04 1120.18,1163.71 1132,1192.5C 1163.11,1266.71 1198.44,1338.71 1238,1408.5C 1257.04,1439.91 1275.04,1471.91 1292,1504.5C 1308.68,1546.24 1315.01,1589.57 1311,1634.5C 1304.25,1717.47 1270.42,1786.97 1209.5,1843C 1151.04,1893.44 1083.04,1920.28 1005.5,1923.5C 1003.5,1923.5 1001.5,1923.5 999.5,1923.5C 889.863,1918.78 803.363,1872.11 740,1783.5C 692.904,1710.01 677.904,1630.35 695,1544.5C 701.293,1518.93 710.626,1494.6 723,1471.5C 770.484,1395.88 812.817,1317.22 850,1235.5C 864.634,1202.27 877.301,1168.27 888,1133.5C 891.493,1121.04 893.826,1108.37 895,1095.5C 896.999,1080.51 893.499,1067.01 884.5,1055C 865.777,1042.53 845.444,1039.19 823.5,1045C 792.024,1053.08 761.357,1063.41 731.5,1076C 712.465,1085.01 693.465,1094.01 674.5,1103C 604.344,1140.23 535.01,1178.56 466.5,1218C 430.374,1238.38 392.041,1253.04 351.5,1262C 245.809,1279.66 156.309,1249.83 83,1172.5C 32.7241,1116.23 4.89072,1050.23 -0.5,974.5C -0.5,963.5 -0.5,952.5 -0.5,941.5C 7.04891,847.23 46.7156,769.73 118.5,709C 184.97,658.973 259.303,640.307 341.5,653C 364.899,657.703 387.565,664.703 409.5,674C 477.649,706.162 544.316,741.162 609.5,779C 649.445,799.473 689.778,819.139 730.5,838C 762.067,851.744 794.734,862.078 828.5,869C 841.633,870.158 854.633,869.491 867.5,867C 874.113,864.695 880.113,861.362 885.5,857C 893.82,844.835 896.986,831.335 895,816.5C 891.53,793.285 885.863,770.618 878,748.5C 839.612,642.385 788.612,543.051 725,450.5C 686.309,380.961 677.642,307.628 699,230.5C 723.142,145.313 773.309,80.48 849.5,36C 885.319,16.8932 923.319,4.72653 963.5,-0.5 Z"/></g>
</svg>
